<?xml version="1.0" standalone="no"?>
<!DOCTYPE svg PUBLIC "-//W3C//DTD SVG 20010904//EN"
 "http://www.w3.org/TR/2001/REC-SVG-20010904/DTD/svg10.dtd">
<svg version="1.0" xmlns="http://www.w3.org/2000/svg"
 width="300.000000pt" height="300.000000pt" viewBox="0 0 300.000000 300.000000"
 preserveAspectRatio="xMidYMid meet">
<metadata>
Created by potrace 1.11, written by Peter Selinger 2001-2013
</metadata>
<g transform="translate(0.000000,300.000000) scale(0.100000,-0.100000)"
fill="#000000" stroke="none">
<path d="M1370 2819 c-380 -252 -337 -229 -504 -264 -32 -6 -48 -10 -172 -36
-55 -11 -110 -23 -124 -25 -54 -10 -58 -15 -69 -65 -6 -27 -11 -57 -11 -65 0
-8 -4 -12 -10 -9 -6 3 -7 -1 -4 -9 3 -9 -4 -59 -15 -113 -12 -54 -24 -109 -26
-123 -23 -122 -29 -136 -167 -344 -76 -116 -138 -215 -138 -221 0 -7 14 -31
31 -55 28 -38 30 -46 19 -64 -12 -18 -11 -19 2 -8 12 10 18 9 28 -2 6 -9 8
-21 4 -28 -4 -7 -4 -10 1 -6 8 7 75 -78 75 -95 0 -5 7 -15 16 -24 8 -9 13 -22
10 -29 -3 -8 -1 -13 5 -11 6 1 16 -7 22 -17 7 -11 20 -29 29 -39 10 -11 15
-23 13 -27 -3 -5 2 -10 10 -14 8 -3 15 -16 15 -29 0 -13 4 -37 10 -53 5 -16
11 -43 14 -61 2 -17 7 -37 11 -42 3 -6 0 -11 -7 -11 -10 0 -10 -2 -1 -8 6 -4
14 -21 17 -37 2 -17 5 -30 6 -30 1 0 3 -11 5 -25 3 -22 24 -125 40 -197 3 -13
12 -23 19 -23 8 0 22 -7 30 -16 10 -10 16 -11 16 -3 0 8 3 9 13 0 8 -6 18 -7
22 -3 5 4 5 -1 2 -10 -4 -12 -2 -15 8 -11 8 3 12 10 8 17 -4 6 1 4 12 -4 10
-8 20 -14 22 -12 8 6 33 1 33 -6 0 -11 -32 -12 -45 -2 -5 5 -16 1 -24 -7 -12
-13 -11 -14 9 -8 16 5 20 4 15 -5 -6 -9 -3 -9 12 -1 14 7 24 7 33 -2 10 -9 11
-9 6 1 -4 7 -2 12 6 13 7 0 23 2 35 3 12 1 20 -1 17 -5 -2 -5 11 -6 31 -5 19
2 37 0 40 -4 3 -5 14 -7 24 -5 10 2 18 -2 18 -9 0 -7 -11 -12 -23 -12 -12 0
-20 4 -17 10 4 5 1 6 -7 1 -9 -6 -11 -4 -5 5 5 9 4 11 -4 6 -9 -6 -9 -11 0
-22 9 -10 9 -14 0 -14 -6 0 -14 6 -17 13 -3 8 -10 14 -17 14 -7 0 -18 2 -26 4
-7 2 -16 -2 -19 -10 -3 -10 0 -12 13 -7 10 4 28 0 42 -9 18 -12 28 -14 38 -5
10 8 15 8 20 0 5 -8 11 -8 20 0 8 7 18 9 24 6 5 -4 12 2 15 11 3 11 4 8 3 -7
-1 -17 -7 -24 -19 -22 -9 1 -19 -2 -23 -8 -3 -6 0 -7 9 -4 10 4 16 1 16 -7 0
-8 6 -5 16 7 14 17 15 17 10 1 -3 -11 -2 -16 4 -12 6 3 8 21 5 38 -3 18 -2 27
2 21 15 -21 71 -44 59 -25 -10 16 22 6 44 -14 11 -10 20 -15 20 -11 0 3 12 -1
26 -11 23 -15 24 -18 10 -29 -15 -10 -15 -12 -1 -18 9 -3 14 -2 10 3 -3 5 1
11 7 14 12 4 47 -14 75 -38 6 -5 34 -23 62 -40 28 -16 51 -35 51 -42 0 -6 5
-15 12 -19 7 -4 8 -3 4 4 -8 13 6 16 18 5 4 -4 -3 -15 -15 -24 -17 -13 -19
-18 -8 -24 8 -5 11 -5 7 0 -4 4 0 14 10 21 22 17 32 17 32 0 0 -8 5 -18 12
-22 7 -4 8 -3 4 4 -11 18 6 14 34 -8 14 -11 29 -20 33 -20 15 0 34 -25 32 -41
-2 -9 4 -16 11 -16 8 0 14 4 14 9 0 4 -6 8 -12 8 -9 0 -8 3 2 10 11 7 17 5 22
-8 6 -16 7 -16 7 1 1 20 17 23 24 5 2 -7 3 -6 2 3 -2 9 8 22 20 27 30 14 42 2
14 -13 -19 -11 -19 -13 -5 -18 10 -4 14 -3 11 2 -7 12 31 25 45 16 5 -3 10 -4
10 0 0 3 -10 9 -22 14 -12 4 -17 10 -11 14 6 4 24 -3 39 -15 28 -21 28 -21 11
-1 -18 21 -18 21 2 28 12 3 21 14 21 23 0 13 2 13 15 -4 12 -15 14 -15 9 -2
-9 26 5 41 24 26 10 -8 13 -8 9 -1 -4 6 -2 13 5 15 14 5 2 28 -15 28 -8 0 -8
-3 2 -9 9 -6 10 -11 2 -15 -10 -6 -15 6 -12 27 1 4 -9 6 -21 4 -13 -2 -17 -2
-10 0 6 3 12 9 12 14 0 6 5 7 12 3 7 -5 9 -2 6 8 -4 9 0 15 8 15 17 0 18 -13
2 -23 -7 -5 -4 -10 10 -15 12 -5 25 -8 28 -8 4 0 11 -5 16 -13 8 -10 9 -10 5
2 -2 8 -10 14 -16 12 -6 -1 -11 2 -11 8 0 18 -2 25 -12 45 -9 20 -9 20 6 1 9
-11 19 -17 22 -13 4 4 1 15 -7 24 -13 17 -13 17 5 3 25 -20 47 -21 44 -3 -2 9
4 18 12 20 13 4 13 3 0 -6 -12 -9 -11 -11 8 -11 13 0 20 -4 17 -10 -4 -6 -10
-8 -15 -5 -5 3 -11 1 -15 -5 -4 -6 -11 -8 -16 -5 -5 4 -9 1 -9 -5 0 -6 -4 -9
-8 -6 -4 2 -14 0 -22 -6 -12 -8 -12 -9 3 -4 9 3 17 2 17 -2 0 -5 7 -17 16 -28
15 -18 15 -18 5 3 -14 29 -14 40 1 25 15 -15 28 -15 28 -1 0 5 -4 7 -10 4 -5
-3 -10 -2 -10 3 0 17 13 21 31 11 15 -8 17 -6 13 6 -4 9 -2 15 2 13 12 -4 64
37 64 50 0 6 -5 14 -11 17 -6 4 -9 0 -7 -8 2 -9 -1 -15 -7 -14 -13 3 -16 27
-4 27 6 0 8 4 5 9 -3 4 5 13 18 19 17 8 23 7 23 -3 0 -7 -6 -11 -14 -8 -7 3
-13 0 -13 -6 0 -6 9 -11 20 -11 11 0 20 -5 20 -11 0 -5 -5 -7 -12 -3 -7 4 -8
3 -4 -5 4 -6 11 -9 16 -6 4 3 11 -1 14 -7 3 -7 3 -2 -1 12 -5 22 -4 23 11 11
9 -7 16 -10 16 -5 0 4 7 -1 16 -12 14 -17 14 -16 0 9 -9 15 -12 27 -7 27 6 0
15 -8 20 -17 8 -14 10 -15 11 -3 0 13 1 13 10 0 5 -8 10 -10 10 -4 0 5 -5 15
-12 22 -9 9 -9 12 0 12 6 0 15 -7 20 -16 8 -15 10 -15 15 0 5 14 10 14 26 4
11 -7 18 -16 15 -20 -3 -4 2 -5 12 -1 14 5 13 8 -7 18 -12 7 -24 20 -25 30 -1
9 -6 20 -10 23 -4 4 -4 -1 -1 -10 4 -13 1 -16 -14 -13 -11 2 -17 0 -14 -5 3
-6 0 -7 -8 -4 -8 3 -18 0 -22 -5 -3 -6 -11 -9 -16 -5 -5 3 -16 0 -24 -6 -11
-9 -15 -9 -15 -1 0 6 6 12 13 13 6 0 17 2 22 3 6 2 15 3 20 4 6 1 3 6 -7 11
-22 13 -48 2 -58 -24 -8 -19 -9 -19 -7 5 1 25 5 28 50 31 12 1 26 7 30 12 6 7
7 4 4 -6 -4 -12 0 -16 14 -15 19 1 25 12 12 20 -5 2 -3 2 4 1 6 -2 13 2 15 8
2 6 10 -2 17 -19 12 -30 55 -56 44 -27 -3 7 -9 12 -15 11 -14 -3 -20 40 -8 48
6 4 10 3 9 -2 -4 -20 2 -31 16 -29 23 3 30 16 9 16 -16 0 -15 2 6 13 15 8 28
9 31 4 8 -11 32 1 25 12 -3 4 4 7 15 6 11 -1 25 -8 30 -16 7 -12 9 -11 9 3 0
9 4 20 10 23 5 3 7 0 4 -8 -3 -8 2 -14 11 -14 9 0 14 6 11 14 -4 10 -1 11 13
3 14 -7 21 -6 23 2 3 7 12 6 29 -6 14 -9 29 -13 32 -9 4 3 7 1 7 -5 0 -7 5
-12 11 -12 8 0 8 5 -1 15 -10 12 -10 18 0 30 7 8 16 13 20 10 5 -3 3 6 -3 19
-7 13 -15 22 -19 19 -5 -2 -6 -8 -3 -13 3 -5 1 -11 -5 -15 -6 -4 -8 -10 -5
-15 3 -4 -2 -10 -10 -14 -15 -5 -31 11 -21 21 3 4 6 0 6 -8 0 -12 2 -12 9 0 5
8 8 23 5 34 -2 11 -1 17 3 13 4 -3 15 2 26 11 11 10 17 13 14 7 -4 -7 2 -23
13 -35 11 -13 19 -18 20 -11 0 6 -4 12 -9 12 -6 0 -9 9 -8 20 1 11 5 20 10 20
4 0 5 5 1 12 -5 8 -2 9 10 5 11 -5 15 -3 10 5 -5 8 -1 9 12 4 10 -4 15 -3 10
1 -13 13 -75 10 -81 -4 -3 -10 0 -11 15 -3 16 9 18 8 14 -5 -4 -9 -9 -14 -12
-11 -2 3 -13 1 -24 -5 -18 -10 -18 -9 -5 18 8 15 13 38 12 50 -1 12 2 20 7 17
5 -4 7 -12 4 -20 -3 -7 -1 -16 4 -19 17 -10 11 34 -7 62 -13 19 -14 25 -4 18
11 -6 13 -4 8 9 -4 9 -3 15 2 11 6 -3 8 13 6 37 -2 25 -1 37 4 29 6 -8 11 -9
15 -3 3 6 2 13 -4 17 -5 3 -10 12 -10 18 0 8 3 7 9 -2 7 -11 11 -9 20 8 10 17
9 22 -4 27 -8 3 -15 11 -15 16 0 6 6 5 15 -2 10 -8 15 -9 15 -2 0 6 -8 16 -17
21 -10 6 -13 11 -6 11 6 0 15 -5 18 -10 4 -6 10 -8 14 -6 3 3 7 -4 7 -14 0
-10 -3 -17 -7 -14 -4 2 -6 -7 -5 -21 2 -13 0 -22 -5 -19 -4 2 -6 -4 -4 -16 2
-11 -1 -19 -7 -17 -6 1 -13 -4 -15 -11 -4 -11 -1 -12 18 -2 22 10 23 10 5 -4
-18 -14 -18 -15 2 -13 11 0 18 5 15 11 -4 5 2 7 13 3 15 -6 14 -3 -4 11 -21
17 -22 19 -7 32 9 7 13 20 10 28 -4 10 0 12 12 8 17 -6 17 -5 1 8 -21 16 -23
28 -5 24 7 -2 13 2 13 7 0 6 -6 9 -13 7 -8 -2 -10 3 -7 13 3 8 9 13 13 11 4
-3 7 4 7 14 0 10 -6 16 -13 13 -7 -3 -11 -8 -9 -12 9 -14 -11 -32 -27 -25 -15
5 -14 8 6 26 l22 19 -25 -5 c-14 -3 -19 -3 -12 0 6 3 10 9 7 14 -4 6 29 6 67
-2 7 -2 13 5 13 15 0 10 7 22 15 28 11 8 9 9 -10 4 -20 -6 -23 -5 -13 5 7 7
28 14 47 15 20 0 39 4 43 8 4 4 -9 5 -28 2 -33 -5 -35 -4 -33 17 4 34 5 35 14
13 l9 -20 0 20 c1 17 3 18 12 5 8 -12 9 -10 4 7 -5 18 -3 22 9 17 9 -3 16 -1
16 6 0 6 -4 8 -10 5 -5 -3 -10 -2 -10 3 0 17 13 22 27 10 8 -6 13 -7 12 -2 -4
25 2 54 11 49 6 -3 10 -1 10 5 0 7 -7 9 -16 6 -14 -5 -15 -4 -4 9 9 11 16 12
25 5 8 -7 16 -7 19 -2 3 6 -1 15 -9 22 -9 7 -13 21 -10 31 5 14 2 17 -8 13 -9
-3 -16 3 -20 18 -6 22 -5 22 8 4 13 -17 15 -18 15 -3 0 9 4 17 10 17 5 0 7 -6
4 -14 -7 -18 12 -30 22 -15 5 8 3 9 -7 4 -11 -7 -12 -6 -2 7 7 8 9 19 5 23 -4
5 -2 5 5 1 6 -3 16 2 22 11 6 10 11 13 11 7 0 -7 7 -14 14 -17 10 -4 13 -1 9
9 -3 7 -9 14 -13 14 -5 0 -7 9 -5 20 4 21 -9 27 -20 10 -3 -5 -1 -10 4 -10 8
0 7 -7 -1 -20 -9 -14 -14 -16 -20 -7 -6 9 -8 9 -8 0 0 -7 -4 -13 -9 -13 -14 0
-21 29 -9 36 6 4 8 3 4 -4 -4 -7 1 -10 14 -9 14 1 18 6 14 19 -3 10 0 18 6 18
6 0 8 5 5 10 -4 6 -11 7 -17 4 -7 -4 -8 -2 -4 5 6 9 11 9 23 -1 12 -10 17 -9
28 5 6 9 16 13 20 9 5 -4 4 -1 0 7 -6 11 -4 13 11 8 16 -6 17 -5 4 6 -8 7 -20
19 -26 26 -9 9 -11 7 -9 -12 4 -35 -9 -52 -25 -32 -11 13 -10 14 6 8 17 -6 18
-5 4 12 -10 13 -11 16 -2 11 9 -6 12 -3 10 10 -2 15 2 18 20 16 21 -2 22 -1 8
14 -9 8 -20 13 -25 9 -5 -3 -12 -1 -16 5 -3 5 -2 10 3 10 6 0 13 8 16 17 4 10
4 14 0 10 -4 -4 -17 1 -28 10 -21 18 -21 18 -2 -4 11 -13 15 -23 10 -23 -13 0
-69 93 -66 108 2 8 -1 11 -6 8 -5 -3 -16 2 -23 11 -8 9 -9 14 -3 10 7 -4 14
-1 17 6 3 9 -3 13 -17 13 -12 -1 -20 4 -18 12 1 6 -3 12 -9 12 -5 0 -8 4 -4
10 3 5 13 6 23 3 9 -3 14 -3 10 2 -4 4 -18 8 -30 9 -13 1 -22 7 -20 14 1 7 -5
15 -13 18 -13 5 -13 9 -3 21 18 22 19 43 1 36 -11 -4 -11 -8 -3 -13 9 -6 9 -9
1 -15 -6 -3 -20 4 -31 17 -15 18 -16 25 -6 33 10 8 9 14 -6 29 -13 15 -15 23
-7 33 6 7 10 13 8 14 -31 6 -40 6 -46 -3 -4 -7 -1 -8 7 -3 9 6 11 4 5 -5 -6
-9 -4 -11 6 -5 8 5 11 4 6 0 -4 -5 0 -19 8 -32 9 -13 12 -23 8 -23 -14 0 -50
64 -47 83 1 9 -1 17 -6 17 -5 0 -7 8 -6 18 2 9 -2 20 -8 24 -7 4 -5 13 6 25 8
10 14 28 12 41 -3 17 0 21 8 16 8 -5 7 0 -2 11 -14 17 -13 18 2 12 10 -3 20
-1 24 5 4 6 3 8 -3 5 -13 -8 -48 17 -48 35 0 7 6 16 15 20 11 6 11 7 -4 5 -24
-3 -29 -32 -9 -52 11 -12 11 -15 1 -15 -10 0 -9 -3 2 -10 11 -7 11 -10 2 -10
-8 0 -10 -5 -5 -12 12 -21 12 -35 -2 -35 -7 0 -12 7 -10 16 1 9 0 21 -3 26 -4
6 -7 19 -8 30 -1 11 -3 25 -4 30 -2 6 1 19 5 29 6 14 3 23 -11 34 -15 11 -15
13 -2 9 9 -3 22 1 30 11 12 15 11 16 -4 3 -21 -15 -24 -2 -5 18 10 11 10 13 0
7 -8 -4 -13 -1 -13 8 0 9 -5 16 -10 16 -7 0 -7 -6 0 -19 7 -13 7 -22 0 -26
-11 -7 -12 -4 -12 25 0 50 1 53 17 40 9 -7 18 -10 22 -6 3 3 1 6 -6 6 -7 0
-10 4 -7 8 7 12 -22 52 -37 52 -8 0 -7 -3 2 -9 7 -5 9 -11 5 -13 -5 -3 -3 -3
4 -2 17 5 15 -11 -5 -27 -10 -8 -14 -9 -10 -2 4 6 3 14 -2 17 -10 7 -9 25 2
43 6 9 3 11 -10 6 -16 -6 -17 -5 -3 12 9 11 10 16 3 11 -13 -7 -17 4 -14 32 2
10 -40 18 -71 13 -5 0 -8 4 -8 10 0 5 -4 8 -9 5 -11 -7 -122 15 -117 23 2 3
-10 7 -27 7 -58 3 -137 17 -132 24 2 3 -6 6 -18 5 -32 -2 -137 26 -137 37 0 5
-4 6 -10 3 -5 -3 -10 -2 -10 3 0 6 -13 15 -30 21 -16 5 -30 15 -30 21 0 6 -4
9 -9 5 -5 -3 -13 4 -16 16 -6 17 -9 19 -16 8 -5 -8 -9 -9 -9 -3 0 6 -12 16
-27 23 -22 10 -24 14 -12 23 11 8 10 9 -5 4 -11 -4 -24 0 -33 11 -8 10 -11 12
-8 5 6 -11 3 -11 -14 0 -12 7 -21 16 -21 20 0 5 -5 8 -11 8 -16 0 -39 26 -31
35 4 5 1 5 -6 1 -8 -5 -34 6 -67 28 -30 20 -56 36 -57 35 -2 0 -37 -23 -78
-50z m1071 -592 c-10 -9 -11 -8 -5 6 3 10 9 15 12 12 3 -3 0 -11 -7 -18z m245
-919 c16 -18 22 -27 13 -20 -23 17 -51 -15 -42 -47 4 -17 3 -22 -5 -17 -7 4
-20 -6 -32 -26 -11 -18 -20 -29 -20 -24 0 5 -7 3 -15 -4 -10 -9 -15 -9 -15 -1
0 6 4 11 8 11 10 0 9 30 -1 47 -10 17 11 27 28 13 11 -9 16 -7 24 9 9 16 8 22
-6 31 -17 10 -17 10 1 8 10 -2 21 3 24 11 3 8 0 11 -7 7 -6 -4 -11 -2 -11 3 0
17 18 13 28 -5 6 -11 12 -13 16 -6 3 6 -4 18 -16 26 -12 9 -18 16 -12 16 6 0
23 -14 40 -32z m-66 -48 c0 -5 -2 -10 -4 -10 -3 0 -8 5 -11 10 -3 6 -1 10 4
10 6 0 11 -4 11 -10z m-60 -81 c-9 -16 -8 -23 5 -33 15 -11 15 -13 -4 -30 -16
-15 -18 -23 -10 -38 14 -26 7 -31 -16 -14 -16 12 -17 16 -6 30 11 14 11 16 -2
16 -9 0 -18 4 -21 8 -3 5 5 8 17 8 16 -1 22 4 20 19 -1 19 13 55 23 55 2 0 0
-9 -6 -21z m-30 -39 c0 -5 -2 -10 -4 -10 -3 0 -8 5 -11 10 -3 6 -1 10 4 10 6
0 11 -4 11 -10z m-31 -51 c-12 -7 -12 -9 0 -9 8 0 12 -3 8 -6 -10 -10 -26 6
-21 21 4 8 11 12 16 9 6 -4 5 -10 -3 -15z m-656 -624 c-3 -9 -8 -14 -10 -11
-3 3 -2 9 2 15 9 16 15 13 8 -4z m23 -10 c-3 -9 1 -18 9 -22 13 -4 13 -8 3
-20 -10 -13 -14 -13 -25 2 -8 13 -9 23 -2 36 12 23 24 25 15 4z m-74 -22 c-6
-3 -9 -10 -6 -15 4 -7 2 -8 -5 -4 -9 6 -9 11 0 22 6 8 15 12 18 8 3 -4 0 -9
-7 -11z m-102 -116 c0 -4 -3 -7 -7 -8 -5 0 -14 -11 -21 -25 -7 -13 -18 -25
-25 -26 -13 -1 -29 -5 -37 -8 -19 -7 -39 -7 -34 1 3 5 -2 9 -10 9 -10 0 -13
-6 -10 -17 5 -15 4 -16 -5 -3 -10 14 -16 7 -12 -13 1 -5 -3 -6 -9 -2 -5 3 -10
2 -10 -2 0 -12 -38 -14 -45 -3 -7 11 29 31 47 28 7 -2 12 2 11 7 -1 6 12 12
28 13 16 1 29 -3 29 -8 0 -6 5 -8 12 -4 7 5 5 11 -7 21 -19 13 -12 17 25 14
11 -1 10 3 -4 14 -11 8 -16 15 -11 15 5 0 16 -6 24 -14 14 -13 19 -12 36 1 20
15 20 15 -2 8 -13 -3 -23 -2 -23 3 0 5 14 9 30 8 17 -1 30 -5 30 -9z"/>
<path d="M2630 1235 c-9 -11 -16 -13 -24 -5 -5 5 -15 10 -20 10 -6 0 -2 -7 8
-15 11 -8 14 -15 8 -15 -7 0 -12 -4 -12 -10 0 -17 14 -10 38 21 24 29 25 42 2
14z"/>
<path d="M2549 1123 c-13 -16 -12 -17 4 -4 16 13 21 21 13 21 -2 0 -10 -8 -17
-17z"/>
<path d="M1645 290 c-4 -6 -11 -7 -17 -4 -7 4 -8 2 -4 -4 8 -13 -5 -16 -20 -4
-5 4 -3 0 3 -8 11 -12 16 -11 35 8 12 12 19 22 16 22 -4 0 -10 -5 -13 -10z"/>
<path d="M1480 230 c-8 -5 -10 -10 -5 -10 6 0 17 5 25 10 8 5 11 10 5 10 -5 0
-17 -5 -25 -10z"/>
<path d="M1626 2778 c3 -5 10 -6 15 -3 13 9 11 12 -6 12 -8 0 -12 -4 -9 -9z"/>
<path d="M2437 2453 c-10 -9 -9 -23 1 -23 5 0 9 7 9 15 0 17 -1 18 -10 8z"/>
<path d="M2496 2355 c-9 -26 -7 -32 5 -12 6 10 9 21 6 23 -2 3 -7 -2 -11 -11z"/>
<path d="M2460 2326 c0 -2 7 -7 16 -10 8 -3 12 -2 9 4 -6 10 -25 14 -25 6z"/>
<path d="M2495 2260 c3 -5 8 -10 11 -10 2 0 4 5 4 10 0 6 -5 10 -11 10 -5 0
-7 -4 -4 -10z"/>
<path d="M2470 2250 c0 -5 5 -10 11 -10 5 0 7 5 4 10 -3 6 -8 10 -11 10 -2 0
-4 -4 -4 -10z"/>
<path d="M2490 2201 c0 -6 4 -13 10 -16 6 -3 7 1 4 9 -7 18 -14 21 -14 7z"/>
<path d="M2518 2121 c-4 -16 -6 -27 -7 -39 0 -7 -5 -11 -10 -7 -5 3 -12 1 -16
-5 -3 -6 1 -13 9 -16 9 -3 16 -10 16 -16 0 -5 -5 -6 -11 -2 -8 5 -8 1 0 -13 6
-11 7 -24 3 -28 -4 -4 3 -2 16 4 12 6 22 17 21 24 0 9 -2 9 -6 0 -9 -23 -20
-14 -20 17 0 26 3 28 16 17 13 -10 14 -10 5 3 -13 18 -16 63 -4 55 5 -3 11 -2
14 3 3 5 -1 9 -9 9 -8 0 -16 -3 -17 -6z"/>
<path d="M2553 2035 c0 -8 4 -12 9 -9 5 3 6 10 3 15 -9 13 -12 11 -12 -6z"/>
<path d="M2580 1901 c-8 -6 -18 -7 -24 -4 -5 3 -6 1 -2 -5 5 -9 13 -9 27 -2
10 6 19 13 19 15 0 7 -3 6 -20 -4z"/>
<path d="M2610 1838 c0 -4 4 -8 9 -8 6 0 12 4 15 8 3 5 -1 9 -9 9 -8 0 -15 -4
-15 -9z"/>
<path d="M2645 1760 c-3 -5 -1 -10 4 -10 6 0 11 5 11 10 0 6 -2 10 -4 10 -3 0
-8 -4 -11 -10z"/>
<path d="M2690 1731 c0 -6 4 -13 10 -16 6 -3 7 1 4 9 -7 18 -14 21 -14 7z"/>
<path d="M2716 1687 c3 -10 9 -15 12 -12 3 3 0 11 -7 18 -10 9 -11 8 -5 -6z"/>
<path d="M2716 1648 c3 -5 9 -7 12 -4 3 3 12 0 21 -6 13 -10 14 -10 4 2 -15
16 -46 23 -37 8z"/>
<path d="M2815 1601 c-3 -5 -2 -12 3 -15 5 -3 9 1 9 9 0 17 -3 19 -12 6z"/>
<path d="M2816 1533 c-6 -14 -5 -15 5 -6 7 7 10 15 7 18 -3 3 -9 -2 -12 -12z"/>
<path d="M2784 1462 c-7 -4 -8 -15 -3 -27 7 -19 8 -19 8 3 1 13 5 20 11 17 6
-3 10 -1 10 4 0 13 -10 14 -26 3z"/>
<path d="M2796 1413 c-6 -14 -5 -15 5 -6 7 7 10 15 7 18 -3 3 -9 -2 -12 -12z"/>
<path d="M2745 1372 c-14 -10 -18 -42 -5 -42 6 0 9 4 5 9 -3 5 2 17 11 25 16
16 8 22 -11 8z"/>
<path d="M2710 1320 c0 -6 7 -10 15 -10 8 0 15 2 15 4 0 2 -7 6 -15 10 -8 3
-15 1 -15 -4z"/>
<path d="M340 1166 c0 -2 8 -10 18 -17 15 -13 16 -12 3 4 -13 16 -21 21 -21
13z"/>
<path d="M2553 1012 c0 -10 7 -19 14 -19 9 0 10 4 3 12 -5 7 -7 15 -3 18 3 4
1 7 -5 7 -6 0 -10 -8 -9 -18z"/>
<path d="M2510 886 c0 -2 7 -6 15 -10 8 -3 15 -1 15 4 0 6 -7 10 -15 10 -8 0
-15 -2 -15 -4z"/>
<path d="M2453 837 c4 -10 2 -27 -4 -38 -7 -15 -7 -24 2 -35 14 -17 33 -19 26
-1 -19 45 -20 50 -10 44 5 -4 19 1 29 9 13 10 14 14 4 11 -8 -2 -24 3 -34 12
-18 15 -19 15 -13 -2z"/>
<path d="M2516 815 c-9 -26 -7 -32 5 -12 6 10 9 21 6 23 -2 3 -7 -2 -11 -11z"/>
<path d="M2488 783 c6 -2 9 -10 6 -15 -4 -7 -2 -8 5 -4 13 9 5 26 -12 25 -9 0
-8 -2 1 -6z"/>
<path d="M2460 720 c0 -5 7 -7 15 -4 8 4 15 8 15 10 0 2 -7 4 -15 4 -8 0 -15
-4 -15 -10z"/>
<path d="M2490 659 c0 -5 5 -7 10 -4 6 3 10 8 10 11 0 2 -4 4 -10 4 -5 0 -10
-5 -10 -11z"/>
<path d="M2490 616 c0 -2 8 -10 18 -17 15 -13 16 -12 3 4 -13 16 -21 21 -21
13z"/>
<path d="M2430 580 c0 -5 5 -10 10 -10 6 0 10 5 10 10 0 6 -4 10 -10 10 -5 0
-10 -4 -10 -10z"/>
<path d="M2342 568 c-7 -7 -12 -8 -12 -4 0 5 -7 3 -15 -4 -8 -7 -15 -9 -15 -6
0 4 -9 2 -20 -4 -16 -9 -22 -8 -26 5 -6 14 -9 14 -30 0 -12 -8 -31 -12 -40 -8
-11 4 -15 2 -11 -4 8 -13 -17 -36 -28 -25 -4 4 0 -5 10 -20 21 -34 23 -34 20
-3 -4 32 8 39 25 14 8 -10 18 -19 23 -19 5 0 4 6 -2 14 -8 10 -9 16 -1 21 5 3
10 2 10 -3 0 -5 7 -9 15 -9 8 0 12 4 10 8 -7 10 22 19 40 13 8 -4 15 -10 15
-15 0 -5 5 -9 12 -9 9 0 9 3 0 12 -7 7 -12 17 -12 22 0 6 5 5 12 -2 9 -9 15
-9 27 1 12 10 14 9 8 -8 -7 -19 -6 -19 7 -2 10 14 15 15 19 5 3 -7 6 -8 6 -2
1 6 -7 18 -17 27 -14 13 -21 14 -30 5z m24 -10 c4 -7 4 -10 -1 -6 -4 4 -14 3
-21 -3 -8 -7 -14 -6 -20 2 -4 7 -3 9 4 5 6 -3 13 -2 17 4 8 13 12 13 21 -2z
m-116 -21 c0 -5 -6 -7 -14 -4 -7 3 -20 0 -27 -6 -11 -10 -11 -9 -1 4 13 17 42
21 42 6z"/>
<path d="M707 530 c-9 -11 -13 -20 -7 -20 5 0 14 9 20 20 6 11 9 20 8 20 -2 0
-11 -9 -21 -20z"/>
<path d="M2271 513 c0 -11 3 -13 6 -5 2 6 10 9 15 6 7 -4 8 -2 4 4 -11 18 -26
14 -25 -5z"/>
<path d="M2396 522 c-3 -5 1 -9 9 -9 8 0 12 4 9 9 -3 4 -7 8 -9 8 -2 0 -6 -4
-9 -8z"/>
<path d="M715 489 c-4 -6 -5 -12 -2 -15 2 -3 7 2 10 11 7 17 1 20 -8 4z"/>
<path d="M750 489 c0 -5 5 -7 10 -4 6 3 10 8 10 11 0 2 -4 4 -10 4 -5 0 -10
-5 -10 -11z"/>
<path d="M945 490 c3 -5 1 -19 -5 -31 -18 -32 -7 -32 12 1 14 25 14 29 2 34
-8 3 -12 1 -9 -4z"/>
<path d="M980 475 c-18 -19 -20 -24 -7 -19 9 3 17 10 17 14 0 5 7 7 15 6 17
-2 33 -16 19 -16 -6 0 -19 -7 -30 -15 -16 -13 -13 -13 15 1 32 15 33 15 28 -1
-4 -9 -3 -14 2 -10 5 3 12 -1 15 -7 3 -7 3 -2 0 11 -5 17 -3 21 6 16 9 -6 11
-4 6 4 -5 7 -11 10 -14 7 -3 -4 -15 3 -27 14 l-21 20 -24 -25z"/>
<path d="M2190 491 c0 -6 4 -13 10 -16 6 -3 7 1 4 9 -7 18 -14 21 -14 7z"/>
<path d="M834 476 c1 -8 5 -18 8 -22 4 -3 5 1 4 10 -1 8 -5 18 -8 22 -4 3 -5
-1 -4 -10z"/>
<path d="M2235 480 c-3 -5 -1 -10 4 -10 6 0 11 5 11 10 0 6 -2 10 -4 10 -3 0
-8 -4 -11 -10z"/>
<path d="M1113 415 c0 -8 4 -12 9 -9 5 3 6 10 3 15 -9 13 -12 11 -12 -6z"/>
<path d="M1134 398 c-4 -7 -4 -10 1 -6 4 4 14 0 21 -10 7 -9 14 -15 17 -12 2
3 -4 13 -13 23 -14 15 -20 16 -26 5z"/>
<path d="M1896 401 c-4 -5 3 -7 14 -4 23 6 26 13 6 13 -8 0 -17 -4 -20 -9z"/>
<path d="M1873 365 c0 -8 4 -15 9 -15 4 0 8 4 8 9 0 6 -4 12 -8 15 -5 3 -9 -1
-9 -9z"/>
<path d="M1190 359 c0 -5 5 -7 10 -4 6 3 10 8 10 11 0 2 -4 4 -10 4 -5 0 -10
-5 -10 -11z"/>
<path d="M1216 352 c-3 -5 1 -9 9 -9 8 0 12 4 9 9 -3 4 -7 8 -9 8 -2 0 -6 -4
-9 -8z"/>
<path d="M1245 320 c3 -5 8 -10 11 -10 2 0 4 5 4 10 0 6 -5 10 -11 10 -5 0 -7
-4 -4 -10z"/>
<path d="M1830 321 c0 -6 4 -13 10 -16 6 -3 7 1 4 9 -7 18 -14 21 -14 7z"/>
<path d="M1273 285 c0 -8 4 -12 9 -9 5 3 6 10 3 15 -9 13 -12 11 -12 -6z"/>
<path d="M1375 241 c-3 -5 -2 -12 3 -15 5 -3 9 1 9 9 0 17 -3 19 -12 6z"/>
<path d="M1409 227 c13 -16 8 -22 -14 -17 -5 1 -6 -2 -2 -6 11 -11 38 -14 32
-4 -3 5 -1 10 5 12 6 2 0 9 -12 17 -21 13 -22 13 -9 -2z"/>
<path d="M1595 199 c-4 -6 -5 -12 -2 -15 2 -3 7 2 10 11 7 17 1 20 -8 4z"/>
<path d="M1506 162 c-3 -5 1 -9 9 -9 8 0 15 4 15 9 0 4 -4 8 -9 8 -6 0 -12 -4
-15 -8z"/>
</g>
</svg>
